Patient4_TMGait_0pt4_01_right_33_EMG.mot
version=1
nRows=13
nColumns=33
inDegrees=no
endheader
time	1LAddLong	2LGlutMax	3LGlutMed	4LIliopsoas	5LSemiMemb	6LBicFemLong	7LRecFem	8LVastMed	9LVastLat	10LGasMed	11LTibAnt	12lTibPost	13LPeroneusLong	14LSol	15LExtDigLong	16LFlexDigLong	17RAddLong	18RGlutMax	19RGlutMed	20RIliopsoas	21RSemiMemb	22RBicFemLong	23RRecFem	24RVastMed	25RVastLat	26RGasMed	27RTibAnt	28RTibPost	29RPeroneusLong	30RSol	31RExtDigLong	32RFlexDigLong
43.78	-0.003662	0.001526	0.14252	0.000153	-0.0177	0.27039	-0.095062	-0.003967	0.25604	0.20264	0.000305	0.037994	-0.050659	0.18753	0.024872	0.030823	-0.00824	0.069275	-0.006256	0.014038	-0.18692	-0.03479	-0.099335	-0.011749	0.019226	0.04715	0.085449	-0.10773	-0.19699	-0.84808	-0.002136	-0.017548
43.781	-0.005035	0.023499	0.1004	0.00946	0.017395	0.31982	-0.03952	-0.002899	0.12787	0.11841	0.001526	0.042419	0.070496	0.14053	0.012054	0.019073	0.004272	0.063171	-0.05127	0.027161	-0.046844	-0.027771	-0.11612	-0.000916	0.005341	-0.000916	0.092773	0.00061	-0.2977	-0.2536	0.00061	-0.019073
43.782	-0.00946	-0.004272	0.048676	0.018921	0.12772	0.298	-0.00824	-0.002594	-0.005951	-0.058289	-0.007324	0.041809	0.37354	0.11459	0.022583	0.005646	-0.056152	0.11246	-0.027161	-0.005188	-0.088806	0.13123	-0.14603	0.071106	0.02243	-0.051117	0.035095	0.03891	-0.35049	0.5307	0.000153	-0.019226
43.783	-0.002747	0.02533	0.011902	0.011444	0.084534	0.30121	-0.032654	0.007629	-0.005188	-0.13092	-0.014496	0.042114	0.35828	0.12741	0.028076	-0.006104	-0.056458	0.076141	-0.005951	-0.10178	0.17334	0.031738	-0.16541	0.024719	0.019531	-0.1088	0.001373	0.030823	-0.31738	0.55817	-0.000916	-0.024109
43.784	0.009155	0.029755	0.023651	0.022583	-0.026245	0.27176	-0.095367	0.003204	0.039215	-0.006866	0.006409	0.040436	0.30136	0.097351	-0.000916	-0.019379	-0.033569	0.11261	-0.002136	-0.12268	0.23605	-0.099792	-0.17853	0.089111	-0.001373	-0.070496	-0.013275	0.031281	-0.22064	0.036163	-0.002441	-0.024261
43.785	0.001984	-0.000305	0.004425	0.015259	-0.077362	0.26611	-0.078735	-0.008698	-0.014343	0.159	0.016479	0.032806	0.056152	-0.023651	0.001373	-0.032959	-0.00885	0.073242	-0.044403	0.006256	0.18646	-0.059509	-0.14511	0.018616	0.000305	0.038147	-0.023651	-0.20706	0.22858	-0.024261	-0.000916	-0.025024
43.786	-0.015564	-0.021515	0.014648	0.001221	-0.12878	0.24155	-0.027618	0.00412	-0.038452	-0.007019	0.008392	0.0177	-0.48263	0.079041	0.035095	-0.045929	-0.004883	0.004425	-0.044708	0.056305	0.049591	-0.099945	-0.16129	-0.019684	-0.003357	0.07431	0.001221	-0.28336	0.7457	0.06134	0.003815	-0.031433
43.787	-0.012817	-0.060577	0.008087	-0.005188	-0.092926	0.02243	-0.020752	0.00473	0.047302	-0.11612	0.034637	0.009766	-0.29694	0.14465	-0.042114	-0.044098	-0.014648	0.042725	-0.11459	0.17075	-0.17212	-0.10605	-0.16815	-0.027008	0	0.031281	0.011292	0.25436	0.61462	0.10239	0.001831	-0.013428
43.788	-0.010986	0.016632	-0.068817	-0.010834	-0.063782	-0.068054	-0.060883	0.012512	0.089722	-0.11627	-0.018158	0.02121	-0.21942	0.26489	-0.0354	-0.058899	0.032043	0.12421	-0.31677	0.11734	-0.24277	-0.045776	-0.15778	-0.023193	-0.01236	-0.023956	-0.009613	0.065002	-0.12711	-0.07431	0.002289	-0.021973
43.789	0.004272	-0.010681	-0.091095	0.007782	-0.12589	-0.28931	-0.079803	0.023804	0.045929	-0.11429	0.040131	0.021667	-0.30136	0.26535	-0.016174	-0.063782	0.053101	0.00946	-0.18127	0.038452	-0.035553	0.001678	-0.16449	-0.071869	-0.003967	-0.040131	-0.042267	-0.060883	-0.22415	-0.045166	0.001984	-0.0177
43.79	0.005035	-0.067291	-0.095215	0.013275	-0.15808	-0.40695	-0.066986	0.035095	0.015869	-0.12573	-0.005035	0.009918	-0.036316	0.27451	0.03067	-0.060883	0.05127	-0.013733	0.10925	0.000916	0.064697	-0.065308	-0.17273	-0.042725	-0.018158	0.015411	-0.071716	-0.12177	-0.17029	0.21851	-0.001373	-0.020752
43.791	0.014038	-0.010071	-0.059052	0.022888	-0.075684	-0.40085	-0.088806	0.032043	-0.014038	-0.10681	-0.010681	0.005188	0.014801	0.19318	0.047913	-0.058136	0.057526	0.046234	-0.031281	0.067139	0.058899	-0.092621	-0.20386	-0.05127	-0.010223	0.051117	-0.059814	0.0737	0.091705	-0.1831	0.000153	-0.013123
43.792	0.02533	0.003357	0.033264	0.02655	-0.029907	-0.25192	-0.080261	0.025177	-0.11551	-0.092621	-0.001373	0.003052	0.15137	0.10498	-0.017395	-0.05722	0.023956	0.057831	0.010223	0.09613	0.019531	-0.052185	-0.18509	-0.080109	-0.021667	0.072784	-0.042114	0.16708	0.11704	-0.25177	-0.000153	-0.010223
